# xmcd CD database file
#
# Track frame offsets:
#	150
#	21708
#	35759
#	59490
#	76178
#	99740
#	112052
#	124423
#	140597
#	151500
#	173141
#	195659
#	212802
#	228719
#
# Disc length: 3370 seconds
#
# Revision: 0
# Processed by: cddbd v1.5.2PL0 Copyright (c) Steve Scherf et al.
# Submitted via: CDex 1.70beta2
#
DISCID=ce0d280e
DTITLE=Wrobel-Alderighi-Parrott-Trick - From Mambo To Tango
DYEAR=2017
DGENRE=Jazz
TTITLE0=Libertango
TTITLE1=Papa LovesMambo
TTITLE2=Adios Nonino
TTITLE3=El Choclo
TTITLE4=Alfonsina Y El Mar
TTITLE5=Los Tres Golpes
TTITLE6=Quizas, Quizas, Quizas
TTITLE7=The Crave
TTITLE8=Mambo (from West Side Story)
TTITLE9=Oblivion
TTITLE10=Ojos Negros - Dark Eyes
TTITLE11=Mambo Inn
TTITLE12=Takes Two To Tango
TTITLE13=Jealousy - La Cumparsita
EXTD=YEAR: 2017
EXTT0=
EXTT1=
EXTT2=
EXTT3=
EXTT4=
EXTT5=
EXTT6=
EXTT7=
EXTT8=
EXTT9=
EXTT10=
EXTT11=
EXTT12=
EXTT13=
PLAYORDER=
